<?xml version="1.0" standalone="no"?>
<!DOCTYPE svg PUBLIC "-//W3C//DTD SVG 20010904//EN"
 "http://www.w3.org/TR/2001/REC-SVG-20010904/DTD/svg10.dtd">
<svg version="1.0" xmlns="http://www.w3.org/2000/svg"
 width="500.000000pt" height="500.000000pt" viewBox="0 0 500.000000 500.000000"
 preserveAspectRatio="xMidYMid meet">
<metadata>
Created by potrace 1.11, written by Peter Selinger 2001-2013
</metadata>
<g transform="translate(0.000000,500.000000) scale(0.100000,-0.100000)"
fill="#000000" stroke="none">
<path d="M575 4426 c-124 -30 -255 -132 -313 -244 -60 -115 -59 -80 -57 -1232
l1 -1055 22 -59 c13 -32 34 -78 48 -102 34 -58 131 -146 196 -178 112 -54 98
-53 991 -53 689 -1 831 -3 842 -14 7 -8 100 -142 205 -299 105 -157 235 -349
288 -428 54 -78 103 -154 110 -168 8 -14 16 -23 19 -20 3 2 5 212 5 465 -1
425 1 461 16 462 9 0 331 1 714 1 717 1 748 2 840 41 86 36 189 127 234 206
13 23 33 72 44 108 19 63 20 90 19 1111 -1 1122 0 1094 -51 1200 -44 92 -135
180 -238 230 -90 43 -38 42 -2015 41 -1434 -1 -1882 -4 -1920 -13z m2075
-1238 c24 -13 46 -29 48 -37 3 -10 -6 -7 -31 8 -20 12 -42 19 -48 15 -8 -4 -9
-3 -5 4 5 8 -14 10 -66 8 -40 -2 -80 -6 -88 -8 -43 -12 -60 -20 -60 -28 0 -5
-6 -7 -13 -4 -13 5 -77 -57 -77 -75 0 -4 -7 -14 -15 -21 -23 -19 -17 1 13 45
29 42 87 85 137 103 55 19 156 14 205 -10z m980 4 c51 -25 75 -79 74 -167 0
-79 -14 -113 -71 -176 -57 -63 -105 -84 -193 -84 -86 0 -158 27 -185 68 -18
28 -23 110 -10 167 18 82 77 149 167 190 56 25 168 26 218 2z m-2201 -15 c-2
-1 -13 -9 -24 -17 -19 -14 -19 -14 -6 3 7 9 18 17 24 17 6 0 8 -1 6 -3z m-65
-52 c-10 -8 -14 -15 -9 -15 7 0 7 -3 0 -8 -45 -33 -36 -232 11 -232 7 0 14 -5
16 -11 6 -19 162 -12 177 8 3 5 12 9 20 11 15 3 31 17 107 90 24 23 46 42 49
42 12 0 3 -50 -19 -96 -28 -59 -91 -117 -152 -138 -90 -30 -211 -8 -265 50
-20 21 -23 35 -23 97 0 50 6 85 21 117 22 49 72 114 81 105 3 -3 -3 -12 -14
-20z m1406 -32 c89 -140 57 -311 -75 -400 -68 -46 -188 -59 -261 -28 -44 18
-111 70 -125 97 -10 19 -9 19 21 3 74 -38 185 -35 268 9 47 25 108 92 130 145
21 52 27 140 13 189 -5 17 -8 32 -5 32 2 0 18 -21 34 -47z m1016 -73 c46 -143
-16 -285 -150 -349 -109 -51 -270 -14 -335 78 l-22 30 44 -19 c136 -60 307 4
380 144 23 46 33 168 16 214 -8 25 -7 24 20 -8 16 -19 38 -60 47 -90z m-1979
42 c39 -67 44 -171 11 -243 -81 -177 -299 -228 -446 -105 -18 16 -37 37 -43
48 -10 18 -9 19 18 4 157 -81 370 20 414 197 11 47 9 114 -7 152 -14 35 24 -2
53 -53z m471 -57 c-6 -14 -13 -24 -14 -22 -6 6 9 47 17 47 5 0 3 -11 -3 -25z
m356 -176 c-44 -48 -210 -90 -229 -59 -5 8 -4 11 2 7 5 -3 21 0 36 8 15 8 27
11 27 7 0 -3 5 -1 12 6 7 7 22 12 33 12 12 0 25 3 29 8 4 4 11 7 14 8 4 0 14
3 22 7 52 20 74 18 54 -4z"/>
<path d="M3419 3173 c-41 -17 -76 -49 -96 -87 -11 -22 -12 -26 -1 -20 10 6 11
5 1 -7 -15 -18 -24 -107 -12 -115 4 -2 6 -10 3 -17 -2 -7 4 -24 16 -37 11 -13
20 -27 20 -33 0 -5 19 -6 47 -2 35 5 55 16 83 43 37 38 90 77 90 67 0 -4 7 1
16 9 8 9 19 14 24 11 5 -3 11 4 15 15 4 11 10 18 14 15 7 -4 8 55 1 63 -1 1
-3 5 -5 10 -9 34 -27 62 -40 62 -8 0 -15 5 -15 10 0 6 -8 10 -18 10 -10 0 -22
3 -26 7 -13 13 -83 11 -117 -4z"/>
</g>
</svg>
